<svg width="228" height="205" viewBox="0 0 228 205" fill="none" xmlns="http://www.w3.org/2000/svg">
<path d="M116 205C177.856 205 228 201.194 228 196.5C228 191.806 177.856 188 116 188C54.1441 188 4 191.806 4 196.5C4 201.194 54.1441 205 116 205Z" fill="#F5F5F5"/>
<path d="M207.161 178.246C207.161 178.246 203.513 170.289 207.681 162.444C211.848 154.599 213.056 152.751 210.4 151.144C207.743 149.537 206.525 157.42 206.525 157.42C206.525 157.42 204.285 151.997 206.134 146.321C207.983 140.646 209.143 131.402 206.617 130.41C204.092 129.419 206.135 141.942 203.944 146.211C203.944 146.211 202.104 141.459 201.801 136.9C201.499 132.342 201.971 125.062 199.977 123.195C197.983 121.328 196.706 122.62 198.666 132.68C200.625 142.74 200.61 150.917 200.61 150.917C200.61 150.917 196.282 137.72 193.377 137.336C190.473 136.951 190.477 141.225 192.963 144.932C195.449 148.638 200.244 155.279 201.031 158.695C201.031 158.695 196.28 148.765 192.007 151.808C187.733 154.852 195.726 160.85 199.289 163.018C202.852 165.185 205.326 178.772 205.326 178.772L207.161 178.246Z" fill="#407BFF"/>
<path opacity="0.2" d="M207.161 178.246C207.161 178.246 203.513 170.289 207.681 162.444C211.848 154.599 213.056 152.751 210.4 151.144C207.743 149.537 206.525 157.42 206.525 157.42C206.525 157.42 204.285 151.997 206.134 146.321C207.983 140.646 209.143 131.402 206.617 130.41C204.092 129.419 206.135 141.942 203.944 146.211C203.944 146.211 202.104 141.459 201.801 136.9C201.499 132.342 201.971 125.062 199.977 123.195C197.983 121.328 196.706 122.62 198.666 132.68C200.625 142.74 200.61 150.917 200.61 150.917C200.61 150.917 196.282 137.72 193.377 137.336C190.473 136.951 190.477 141.225 192.963 144.932C195.449 148.638 200.244 155.279 201.031 158.695C201.031 158.695 196.28 148.765 192.007 151.808C187.733 154.852 195.726 160.85 199.289 163.018C202.852 165.185 205.326 178.772 205.326 178.772L207.161 178.246Z" fill="black"/>
<path d="M204.282 181.51C204.282 181.51 207.834 173.499 203.573 165.716C199.312 157.934 198.082 156.104 200.719 154.458C203.356 152.811 204.669 160.675 204.669 160.675C204.669 160.675 206.843 155.219 204.926 149.572C203.009 143.925 201.739 134.699 204.252 133.67C206.765 132.641 204.872 145.194 207.115 149.43C207.115 149.43 208.897 144.65 209.146 140.088C209.394 135.525 208.833 128.254 210.805 126.357C212.776 124.46 214.069 125.734 212.23 135.822C210.392 145.91 210.504 154.087 210.504 154.087C210.504 154.087 214.674 140.827 217.573 140.399C220.473 139.971 220.521 144.244 218.079 147.988C215.637 151.731 210.923 158.443 210.177 161.871C210.177 161.871 214.809 151.87 219.118 154.85C223.428 157.829 215.508 163.947 211.971 166.167C208.435 168.387 206.124 182.01 206.124 182.01L204.282 181.51Z" fill="#407BFF"/>
<path d="M220.662 175.799H191.323L193.698 196.794H218.288L220.662 175.799Z" fill="#263238"/>
<path opacity="0.1" d="M205.311 58.698H167.147C165.377 58.698 163.942 57.2634 163.942 55.4931V26.8905C163.942 25.1208 165.376 23.6855 167.147 23.6855H205.311C207.081 23.6855 208.516 25.1201 208.516 26.8905V55.4931C208.516 57.2634 207.081 58.698 205.311 58.698Z" fill="black"/>
<g opacity="0.1">
<path d="M202.584 22.0558H198.166V17.2772C198.166 10.9992 193.058 5.89137 186.779 5.89137C180.501 5.89137 175.393 10.9992 175.393 17.2772V22.0558H170.975V17.2772C170.975 8.56237 178.064 1.47284 186.779 1.47284C195.494 1.47284 202.584 8.56311 202.584 17.2772V22.0558Z" fill="black"/>
</g>
<path d="M186.9 57.2252H148.736C146.967 57.2252 145.531 55.7906 145.531 54.0202V25.4176C145.531 23.648 146.966 22.2127 148.736 22.2127H186.9C188.67 22.2127 190.105 23.6473 190.105 25.4176V54.0202C190.105 55.7906 188.67 57.2252 186.9 57.2252Z" fill="#263238"/>
<path opacity="0.2" d="M178.84 57.2252H148.736C146.967 57.2252 145.531 55.7906 145.531 54.0202V25.4176C145.531 23.648 146.966 22.2127 148.736 22.2127H178.84C180.61 22.2127 182.045 23.6473 182.045 25.4176V54.0202C182.045 55.7906 180.61 57.2252 178.84 57.2252Z" fill="white"/>
<path d="M166.026 35.3483C166.026 32.9343 164.557 30.9776 162.744 30.9776C160.931 30.9776 159.461 32.9343 159.461 35.3483C159.461 37.1842 160.313 38.7527 161.517 39.4001L160.909 48.5295H164.577L163.969 39.4001C165.175 38.7535 166.026 37.1842 166.026 35.3483Z" fill="#263238"/>
<path d="M184.174 20.583H179.755V15.8043C179.755 9.52635 174.647 4.41853 168.368 4.41853C162.09 4.41853 156.983 9.52635 156.983 15.8043V20.583H152.564V15.8043C152.564 7.08953 159.654 0 168.368 0C177.083 0 184.174 7.09027 184.174 15.8043V20.583Z" fill="#263238"/>
<g opacity="0.4">
<path d="M184.174 20.583H179.755V15.8043C179.755 9.52635 174.647 4.41853 168.368 4.41853C162.09 4.41853 156.983 9.52635 156.983 15.8043V20.583H152.564V15.8043C152.564 7.08953 159.654 0 168.368 0C177.083 0 184.174 7.09027 184.174 15.8043V20.583Z" fill="white"/>
</g>
<path opacity="0.2" d="M184.171 15.8051V20.5845H181.174V15.2601C181.174 7.28468 174.708 0.826254 166.733 0.826254C163.721 0.826254 160.93 1.76151 158.64 3.36691C161.327 1.26074 164.708 0.00146484 168.368 0.00146484C177.08 0.00146484 184.171 7.08584 184.171 15.8051Z" fill="white"/>
<path d="M121.728 100.479H103.875V99.7904H107.907C108.468 99.7904 108.943 99.3824 109.04 98.8338L110.843 88.096L111.196 85.9825H117.311L122.781 98.889C123.098 99.6446 122.544 100.479 121.728 100.479Z" fill="#407BFF"/>
<path opacity="0.4" d="M121.728 100.479H103.875V99.7904H107.907C108.468 99.7904 108.943 99.3824 109.04 98.8338L110.843 88.096L111.196 85.9825H117.311L122.781 98.889C123.098 99.6446 122.544 100.479 121.728 100.479Z" fill="white"/>
<path opacity="0.2" d="M121.752 99.7911H107.908C108.468 99.7911 108.943 99.3831 109.041 98.8345L110.843 88.0967H117.251L122.124 99.2248C122.24 99.4862 122.044 99.7911 121.752 99.7911Z" fill="black"/>
<path d="M131.328 89.94H95.6201C95.2637 89.94 95.0288 89.6506 95.0965 89.2941L100.169 62.4648C100.237 62.1084 100.581 61.819 100.937 61.819H136.645C137.001 61.819 137.236 62.1084 137.168 62.4648L132.096 89.2941C132.028 89.6506 131.684 89.94 131.328 89.94Z" fill="#407BFF"/>
<path opacity="0.4" d="M131.328 89.94H95.6201C95.2637 89.94 95.0288 89.6506 95.0965 89.2941L100.169 62.4648C100.237 62.1084 100.581 61.819 100.937 61.819H136.645C137.001 61.819 137.236 62.1084 137.168 62.4648L132.096 89.2941C132.028 89.6506 131.684 89.94 131.328 89.94Z" fill="white"/>
<path d="M130.591 89.94H94.8837C94.5273 89.94 94.2924 89.6506 94.3602 89.2941L99.4326 62.4648C99.5004 62.1084 99.8443 61.819 100.201 61.819H135.908C136.265 61.819 136.5 62.1084 136.432 62.4648L131.359 89.2941C131.292 89.6506 130.948 89.94 130.591 89.94Z" fill="#263238"/>
<path d="M130.118 88.2948H95.9795L100.674 63.4642H134.812L130.118 88.2948Z" fill="#407BFF"/>
<path d="M70.6137 100.479V99.6418L84.3598 96.864H111.241C112.239 96.864 113.048 97.6726 113.048 98.6705C113.048 99.6683 112.239 100.477 111.241 100.477L70.6137 100.479Z" fill="#407BFF"/>
<path opacity="0.4" d="M113.045 98.6724C113.045 99.1658 112.846 99.6224 112.522 99.9464C112.19 100.27 111.741 100.477 111.24 100.477H70.6121V99.6445L84.3611 96.8608H111.24C112.242 96.8608 113.045 97.6709 113.045 98.6724Z" fill="white"/>
<path opacity="0.4" d="M113.045 98.6725C113.045 99.1659 112.846 99.6225 112.522 99.9465C112.19 100.271 111.741 100.477 111.24 100.477H94.914V99.6446L108.663 96.8609H111.24C112.242 96.8609 113.045 97.671 113.045 98.6725Z" fill="white"/>
<path d="M122.872 196.794H126.55L133.159 104.785H128.279L122.872 196.794Z" fill="#263238"/>
<path opacity="0.1" d="M122.87 196.794H126.551L132.837 109.355L133.161 104.933H128.28L128.015 109.355L122.87 196.794Z" fill="white"/>
<path opacity="0.2" d="M128.015 109.136H132.837L133.161 104.933H128.28L128.015 109.136Z" fill="black"/>
<path d="M95.8788 196.794H99.5572L100.157 104.785H95.2778L95.8788 196.794Z" fill="#263238"/>
<path opacity="0.1" d="M95.2756 104.933L95.3713 119.778L95.8758 196.794H99.5564L100.061 119.778L100.157 104.933H95.2756Z" fill="white"/>
<path opacity="0.2" d="M95.2756 104.933L95.3713 119.943H100.061L100.157 104.933H95.2756Z" fill="black"/>
<path d="M56.8278 196.794H60.5062L67.1148 104.785H62.2353L56.8278 196.794Z" fill="#263238"/>
<path opacity="0.1" d="M56.8255 196.794H60.5061L66.7922 109.355L67.1163 104.933H62.2353L61.9709 109.355L56.8255 196.794Z" fill="white"/>
<path opacity="0.2" d="M61.9709 109.136H66.7922L67.1163 104.933H62.2353L61.9709 109.136Z" fill="black"/>
<path d="M164.95 196.794H168.628L163.221 104.785H158.341L164.95 196.794Z" fill="#263238"/>
<path opacity="0.1" d="M158.342 104.933L158.666 109.355L164.952 196.794H168.627L163.487 109.355L163.223 104.933H158.342Z" fill="white"/>
<path opacity="0.2" d="M163.223 104.933H158.342L158.666 109.136H163.487L163.223 104.933Z" fill="black"/>
<path d="M59.959 107.089H165.496C166.376 107.089 167.088 106.376 167.088 105.497V102.48H58.3668V105.497C58.3668 106.376 59.0797 107.089 59.959 107.089Z" fill="#407BFF"/>
<path opacity="0.4" d="M59.959 107.089H165.496C166.376 107.089 167.088 106.376 167.088 105.497V102.48H58.3668V105.497C58.3668 106.376 59.0797 107.089 59.959 107.089Z" fill="white"/>
<path opacity="0.2" d="M58.3672 104.784L167.089 104.784V102.48L58.3672 102.48V104.784Z" fill="black"/>
<path d="M56.0869 103.081H169.368C170.086 103.081 170.667 102.5 170.667 101.783C170.667 101.067 170.086 100.485 169.368 100.485H56.0869C55.3696 100.485 54.7886 101.066 54.7886 101.783C54.7893 102.5 55.3703 103.081 56.0869 103.081Z" fill="#407BFF"/>
<path opacity="0.4" d="M56.0869 103.081H169.368C170.086 103.081 170.667 102.5 170.667 101.783C170.667 101.067 170.086 100.485 169.368 100.485H56.0869C55.3696 100.485 54.7886 101.066 54.7886 101.783C54.7893 102.5 55.3703 103.081 56.0869 103.081Z" fill="white"/>
<path opacity="0.3" d="M102.571 77.3744C102.242 77.3744 101.934 77.2294 101.724 76.9753C101.515 76.7205 101.431 76.3898 101.494 76.0665L101.953 73.7152C102.082 73.0568 102.661 72.5796 103.332 72.5796H122.483C122.813 72.5796 123.121 72.7247 123.33 72.9787C123.54 73.2335 123.623 73.5642 123.561 73.8875L123.102 76.2389C122.974 76.8972 122.394 77.3744 121.723 77.3744H102.571Z" fill="white"/>
<path d="M121.723 77.0055H102.571C102.113 77.0055 101.768 76.5872 101.856 76.1365L102.314 73.7844C102.409 73.2976 102.836 72.9471 103.331 72.9471H122.483C122.941 72.9471 123.286 73.3654 123.199 73.8161L122.74 76.1682C122.645 76.655 122.218 77.0055 121.723 77.0055Z" fill="white"/>
<path d="M106.051 74.9766C105.931 75.5908 105.383 76.0894 104.827 76.0894C104.271 76.0894 103.917 75.5915 104.037 74.9766C104.157 74.3625 104.705 73.8639 105.261 73.8639C105.817 73.8639 106.171 74.3625 106.051 74.9766Z" fill="#263238"/>
<path d="M109.044 74.9766C108.924 75.5908 108.377 76.0894 107.821 76.0894C107.265 76.0894 106.911 75.5915 107.03 74.9766C107.15 74.3625 107.698 73.8639 108.254 73.8639C108.81 73.8639 109.164 74.3625 109.044 74.9766Z" fill="#263238"/>
<path d="M112.037 74.9766C111.917 75.5908 111.369 76.0894 110.813 76.0894C110.257 76.0894 109.903 75.5915 110.023 74.9766C110.143 74.3625 110.691 73.8639 111.247 73.8639C111.804 73.8639 112.157 74.3625 112.037 74.9766Z" fill="#263238"/>
<path d="M115.031 74.9766C114.911 75.5908 114.363 76.0894 113.807 76.0894C113.251 76.0894 112.897 75.5915 113.017 74.9766C113.137 74.3625 113.685 73.8639 114.241 73.8639C114.797 73.8639 115.15 74.3625 115.031 74.9766Z" fill="#263238"/>
<path d="M118.024 74.9766C117.904 75.5908 117.356 76.0894 116.8 76.0894C116.244 76.0894 115.89 75.5915 116.01 74.9766C116.13 74.3625 116.677 73.8639 117.233 73.8639C117.79 73.8639 118.144 74.3625 118.024 74.9766Z" fill="#263238"/>
<path d="M121.017 74.9766C120.897 75.5908 120.349 76.0894 119.793 76.0894C119.237 76.0894 118.883 75.5915 119.003 74.9766C119.123 74.3625 119.671 73.8639 120.227 73.8639C120.783 73.8639 121.137 74.3625 121.017 74.9766Z" fill="#263238"/>
<path opacity="0.3" d="M124.398 77.3744C124.139 77.3744 123.902 77.2654 123.746 77.0762C123.588 76.884 123.527 76.624 123.579 76.3626L124.16 73.4471C124.256 72.9603 124.716 72.5789 125.205 72.5789H128.121C128.38 72.5789 128.618 72.6878 128.773 72.8771C128.931 73.0693 128.992 73.3293 128.94 73.5907L128.359 76.5062C128.263 76.993 127.803 77.3744 127.314 77.3744H124.398Z" fill="white"/>
<path d="M124.398 77.0055H127.314C127.63 77.0055 127.936 76.75 127.999 76.434L128.578 73.5185C128.641 73.2026 128.436 72.9471 128.12 72.9471H125.205C124.889 72.9471 124.582 73.2026 124.52 73.5185L123.939 76.434C123.878 76.75 124.082 77.0055 124.398 77.0055Z" fill="#263238"/>
<path d="M125.894 76.2654C125.847 76.2654 125.803 76.2477 125.775 76.2116C125.717 76.1395 125.74 76.0231 125.826 75.951L126.994 74.9767L126.214 74.0024C126.157 73.9302 126.18 73.8139 126.266 73.7417C126.352 73.6695 126.468 73.6695 126.526 73.7417L127.411 74.8463C127.468 74.9185 127.445 75.0348 127.359 75.107L126.035 76.2116C125.992 76.247 125.941 76.2654 125.894 76.2654Z" fill="#407BFF"/>
<path d="M127.218 75.1608H125.227C125.126 75.1608 125.059 75.0783 125.08 74.9766C125.1 74.875 125.199 74.7925 125.301 74.7925H127.292C127.393 74.7925 127.459 74.875 127.439 74.9766C127.418 75.0775 127.32 75.1608 127.218 75.1608Z" fill="#407BFF"/>
<path d="M62.6764 30.1978H78.55C80.2268 30.1978 81.5862 28.8383 81.5862 27.1615V11.2879C81.5862 9.61108 80.2268 8.25165 78.55 8.25165H62.6764C60.9996 8.25165 59.6401 9.61108 59.6401 11.2879V27.1615C59.6401 28.8383 60.9996 30.1978 62.6764 30.1978Z" fill="#407BFF"/>
<path d="M68.897 29.3781L70.6136 36.7585L72.3294 29.3781H68.897Z" fill="#407BFF"/>
<path opacity="0.3" d="M70.4214 25.808C63.9556 21.8578 64.0742 15.1644 64.0764 15.0974L64.0837 14.8618L70.6136 12.0811L77.1434 14.8618L77.1508 15.0974C77.153 15.1644 77.2716 21.8578 70.8058 25.808L70.6136 25.925L70.4214 25.808Z" fill="white"/>
<path opacity="0.6" d="M70.6136 12.481L76.7826 15.1085C76.7826 15.1085 76.9719 21.6096 70.6136 25.4943V12.481Z" fill="white"/>
<path opacity="0.4" d="M70.6136 12.481L64.4446 15.1085C64.4446 15.1085 64.2554 21.6096 70.6136 25.4943V12.481Z" fill="white"/>
<path d="M64.6854 95.6781L69.8322 96.4492C69.8322 96.4492 71.5805 95.8718 73.4252 95.6781C75.27 95.4837 77.407 95.6781 77.407 95.6781C77.407 95.6781 79.7378 96.5523 79.7378 98.7858C79.7378 98.7858 74.2994 100.242 72.2116 99.3684L64.6854 98.7858V95.6781Z" fill="#E4897B"/>
<path opacity="0.2" d="M64.6854 95.6781L69.8322 96.4492C69.8322 96.4492 71.5805 95.8718 73.4252 95.6781C75.27 95.4837 77.407 95.6781 77.407 95.6781C77.407 95.6781 79.7378 96.5523 79.7378 98.7858C79.7378 98.7858 74.2994 100.242 72.2116 99.3684L64.6854 98.7858V95.6781Z" fill="black"/>
<path d="M77.4586 60.8638C77.4586 60.8638 77.5912 62.7152 78.0758 63.984C78.0758 63.984 77.2392 64.5474 76.2752 63.9642L77.4586 60.8638Z" fill="#AA473D"/>
<path d="M79.4639 59.3969C79.2665 59.8733 78.9131 60.1797 78.6745 60.081C78.4359 59.9823 78.4035 59.5162 78.6008 59.0397C78.7982 58.5632 79.1517 58.2569 79.3895 58.3556C79.6281 58.4543 79.6613 58.9204 79.4639 59.3969Z" fill="#263238"/>
<path d="M80.6775 57.4792C80.6775 57.4792 79.1568 56.5557 77.804 57.2457" stroke="#263238" stroke-width="0.7247" stroke-miterlimit="10" stroke-linecap="round" stroke-linejoin="round"/>
<path d="M76.0174 64.8722C75.8517 65.0791 75.6809 65.2779 75.5005 65.4606C74.429 66.5711 73.0813 67.2751 71.6762 67.5601C71.308 67.6374 70.9332 67.6853 70.5591 67.7052C68.5832 67.8053 66.6111 67.0991 65.2296 65.5732C64.6603 64.9568 64.1861 64.1917 63.8591 63.2918C62.5461 59.7577 63.8849 56.9696 65.7694 52.0768C66.1597 51.0164 66.7871 50.0605 67.6141 49.2961C70.5053 46.589 75.0446 46.7451 77.7458 49.6341C81.5619 53.6579 78.994 61.0457 76.0174 64.8722Z" fill="#E4897B"/>
<path opacity="0.2" d="M71.677 67.5601C71.3088 67.6374 70.9339 67.6853 70.5598 67.7052C68.584 67.8053 66.6119 67.0991 65.2303 65.5732C65.983 64.8029 66.8151 64.3397 66.8151 64.3397C66.8151 64.3397 69.8632 65.1896 71.677 67.5601Z" fill="black"/>
<path d="M55.8019 67.7434C56.2843 71.1943 63.8238 72.4823 63.8238 72.4823C63.8238 72.4823 67.5449 74.1768 67.6974 72.6996C66.1582 70.9182 65.9874 69.365 66.5184 68.0019C66.8284 67.2088 67.3792 66.4842 68.0354 65.8125C68.3756 65.4561 68.7519 65.121 69.1334 64.7992L66.8335 55.3561C65.1759 58.9447 59.5135 67.2324 55.8019 67.7434Z" fill="#E4897B"/>
<path d="M77.3187 46.9631C77.3187 46.9631 78.9286 46.7628 80.1635 49.7659C81.2041 52.297 78.7555 52.8442 78.8608 55.5358C78.9661 58.2274 76.5094 59.7187 76.5094 59.7187C76.5094 59.7187 74.4423 61.5001 72.6852 60.5339C72.6852 60.5339 70.3861 61.6613 69.7807 63.6291C69.1754 65.5968 65.6185 62.0428 62.4136 62.5811C62.4136 62.5811 60.2463 60.5552 60.4068 55.6352C60.5129 52.3883 61.9503 49.4662 61.9503 49.4662C61.9503 49.4662 62.8856 46.536 66.5493 44.8996C70.2145 43.2626 76.6287 44.5071 77.3187 46.9631Z" fill="#263238"/>
<path d="M72.2448 59.0847C72.0607 60.2511 72.2868 61.2718 72.8744 61.9221C73.6594 62.7734 74.9165 61.6931 75.4247 60.1959C75.8665 58.8652 76.0175 56.7782 74.8709 56.544C73.7235 56.3098 72.4863 57.6486 72.2448 59.0847Z" fill="#E4897B"/>
<path d="M73.0526 70.5934C71.9995 73.5244 71.0569 76.3523 70.2248 79.0623C69.6945 80.7413 69.2085 82.3836 68.7593 83.9669C68.3837 85.2998 68.0376 86.5885 67.7136 87.8404C67.5589 88.4443 67.4043 89.0408 67.257 89.6299C66.4469 92.8776 65.7915 95.838 65.276 98.4449C63.7295 106.207 63.3687 110.868 63.3687 110.868L34.4641 107.253C35.4656 102.289 36.2463 97.9515 37.3362 93.2752C37.94 90.7125 38.6249 88.0466 39.5086 85.123C40.1272 83.0242 40.8489 80.7929 41.7031 78.37C44.6046 70.0485 47.2779 67.7435 47.2779 67.7435C58.3978 65.9613 73.0526 70.5934 73.0526 70.5934Z" fill="#263238"/>
<path d="M82.6636 96.2143L87.8105 96.9853C87.8105 96.9853 89.5588 96.408 91.4035 96.2143C93.249 96.0199 95.3853 96.2143 95.3853 96.2143C95.3853 96.2143 97.7161 97.0884 97.7161 99.322C97.7161 99.322 92.2776 100.779 90.1899 99.9045L82.6636 99.322V96.2143Z" fill="#E4897B"/>
<path d="M50.7574 191.413L56.14 191.51L58.8205 179.097L53.4447 179.007L50.7574 191.413Z" fill="#EBB376"/>
<path opacity="0.2" d="M53.4447 179.007L58.8205 179.104L57.2866 186.198L51.9586 185.842L53.4447 179.007Z" fill="black"/>
<path d="M68.0531 161.027C64.5042 174.519 60.2131 184.18 60.2131 184.18L50.3915 183.43C50.3915 183.43 54.4219 167.69 55.8815 153.275C56.7858 144.377 56.7048 137.013 54.1008 136.444C52.4608 136.082 48.624 136.095 43.7099 136.209V117.891C57.5023 120.723 71.227 126.066 72.272 130.35C73.7309 136.382 71.1799 149.15 68.0531 161.027Z" fill="#407BFF"/>
<path d="M49.3486 183.889L61.043 184.666L62.764 179.611L49.8803 179.008L49.3486 183.889Z" fill="#407BFF"/>
<path opacity="0.2" d="M49.3486 183.889L61.043 184.666L62.764 179.611L49.8803 179.008L49.3486 183.889Z" fill="white"/>
<path d="M56.9478 191.242C56.9478 191.248 57.059 191.25 57.0605 191.256C57.0664 191.276 57.1805 191.294 57.196 191.307C57.2048 191.319 57.2056 191.336 57.2188 191.345C57.2343 191.349 57.2498 191.346 57.2645 191.341C57.7203 191.484 58.1902 191.577 58.6659 191.619C59.0208 191.682 59.3854 191.61 59.6895 191.417C59.8825 191.245 59.9576 190.977 59.8847 190.729C59.8663 190.567 59.7617 190.425 59.6144 190.355C59.269 190.196 58.6489 190.395 58.1239 190.629C58.4553 190.217 58.7012 189.733 58.6534 189.4C58.6202 189.182 58.4162 189.015 58.1968 188.993C58.0031 188.958 57.7513 189.009 57.5988 189.134C57.0384 189.618 56.9478 191.138 56.9478 191.233C56.9478 191.234 56.9478 191.236 56.9478 191.237V191.238V191.242ZM57.5259 190.931C57.4847 190.954 57.4501 190.973 57.4155 190.992C57.4361 190.482 57.5318 189.632 57.8698 189.347C57.9435 189.277 58.0429 189.242 58.1438 189.249L58.2049 189.258C58.3824 189.289 58.4236 189.38 58.4295 189.453C58.4604 189.818 57.9825 190.537 57.5259 190.931ZM57.6032 191.197C58.2513 190.84 59.1726 190.446 59.515 190.605C59.5879 190.639 59.6372 190.709 59.6446 190.789C59.6858 190.946 59.6409 191.113 59.5275 191.229C59.258 191.46 58.551 191.446 57.6032 191.197Z" fill="#407BFF"/>
<path d="M56.8189 190.585L50.7935 190.21C50.5844 190.187 50.3958 190.339 50.373 190.548C50.373 190.551 50.3723 190.553 50.3723 190.554L49.7809 195.308C49.7485 195.828 50.1403 196.276 50.6595 196.315C52.7642 196.413 53.7738 196.354 56.4264 196.498C58.0539 196.595 61.2617 196.941 63.5078 196.724C65.7539 196.507 65.4785 194.292 64.5086 194.186C62.2088 193.925 59.1622 192.234 57.7232 190.952C57.4706 190.733 57.1525 190.604 56.8189 190.585Z" fill="#263238"/>
<path opacity="0.2" d="M68.0531 161.028C64.3842 158.704 60.0923 155.973 55.8807 153.274C56.7851 144.376 56.7041 137.012 54.1001 136.443C52.4601 136.081 48.6233 136.094 43.7092 136.209V117.89C57.5016 120.722 71.2263 126.065 72.2713 130.35C73.7309 136.382 71.1799 149.151 68.0531 161.028Z" fill="black"/>
<path d="M82.2247 191.413L87.6072 191.51L90.2878 179.097L84.9119 179.007L82.2247 191.413Z" fill="#EBB376"/>
<path opacity="0.2" d="M84.9119 179.007L90.2878 179.104L88.7538 186.198L83.4266 185.842L84.9119 179.007Z" fill="black"/>
<path d="M62.6794 116.09L63.5454 109.136L35.434 104.508C35.434 104.508 26.2405 122.723 30.7408 131.65C34.8684 139.84 78.8048 134.961 85.5681 136.44C92.3999 137.933 81.8587 183.427 81.8587 183.427L91.6804 184.177C91.6804 184.177 106.857 143.232 103.736 130.353C102.375 124.733 79.2143 117.293 62.6794 116.09Z" fill="#407BFF"/>
<path d="M80.816 183.889L92.5111 184.666L94.2314 179.611L81.3477 179.008L80.816 183.889Z" fill="#407BFF"/>
<path opacity="0.2" d="M80.816 183.889L92.5111 184.666L94.2314 179.611L81.3477 179.008L80.816 183.889Z" fill="white"/>
<path d="M88.4151 191.242C88.4151 191.248 88.5263 191.25 88.5278 191.256C88.5337 191.276 88.6478 191.294 88.6633 191.307C88.6721 191.319 88.6729 191.336 88.6861 191.345C88.7016 191.349 88.717 191.346 88.7318 191.341C89.1876 191.484 89.6574 191.577 90.1332 191.619C90.4874 191.682 90.8527 191.61 91.1568 191.417C91.3497 191.245 91.4256 190.977 91.352 190.729C91.3335 190.567 91.229 190.425 91.0817 190.355C90.7363 190.196 90.1162 190.395 89.5912 190.629C89.9226 190.217 90.1685 189.733 90.1207 189.4C90.0875 189.182 89.8835 189.015 89.6641 188.993C89.4704 188.958 89.2185 189.009 89.0661 189.134C88.5057 189.618 88.4151 191.138 88.4151 191.233C88.4151 191.234 88.4151 191.236 88.4151 191.237V191.238V191.242ZM88.9932 190.931C88.9527 190.954 88.9173 190.973 88.8827 190.992C88.9034 190.482 88.9991 189.632 89.3371 189.347C89.4108 189.277 89.5102 189.242 89.6111 189.249L89.6722 189.258C89.8497 189.289 89.8909 189.38 89.8968 189.453C89.9277 189.818 89.4498 190.537 88.9932 190.931ZM89.0705 191.197C89.7193 190.84 90.6398 190.446 90.9823 190.605C91.0552 190.639 91.1045 190.709 91.1119 190.789C91.1531 190.946 91.1082 191.113 90.9948 191.229C90.726 191.46 90.019 191.446 89.0705 191.197Z" fill="#407BFF"/>
<path d="M88.2862 190.585L82.2608 190.21C82.0516 190.187 81.8631 190.339 81.8403 190.548C81.8403 190.551 81.8396 190.553 81.8396 190.554L81.2482 195.308C81.2158 195.828 81.6076 196.276 82.1268 196.315C84.2315 196.413 85.2411 196.354 87.8937 196.498C89.5212 196.595 92.729 196.941 94.9751 196.724C97.2212 196.507 96.9458 194.292 95.9759 194.186C93.6761 193.925 90.6295 192.234 89.1905 190.952C88.9387 190.733 88.6198 190.604 88.2862 190.585Z" fill="#263238"/>
<path d="M34.403 107.674L47.4281 109.381L47.8493 107.461L34.8014 105.562L34.403 107.674Z" fill="black"/>
<path d="M48.9334 107.472L48.7758 109.381L60.8133 111.036V109.15L48.9334 107.472Z" fill="black"/>
<path d="M61.5601 109.254V111.036L63.3069 111.27V109.546L61.5601 109.254Z" fill="black"/>
<path opacity="0.2" d="M70.2248 79.0623C69.6946 80.7413 69.2085 82.3835 68.7593 83.9668C68.3837 85.2998 68.0376 86.5885 67.7136 87.8404C66.8078 82.9064 68.45 77.015 68.45 77.015L70.2248 79.0623Z" fill="black"/>
<path d="M73.0504 70.5897C75.4018 71.0655 76.178 89.3228 76.2752 91.2648C76.3724 93.2067 87.8105 96.986 87.8105 96.986V99.6475C87.8105 99.6475 75.5535 98.7903 72.6925 97.6194C69.8315 96.4484 69.1319 79.5137 69.1319 79.5137L73.0504 70.5897Z" fill="#E4897B"/>
<path d="M73.0504 70.5897C75.2074 71.2599 76.2752 83.3018 76.2752 83.3018L69.6054 85.989L67.9499 79.2928C67.9499 79.2928 67.4764 77.9333 68.4094 75.0591C69.7571 70.9079 73.0504 70.5897 73.0504 70.5897Z" fill="#263238"/>
<path d="M82.3153 139.534H17.4586V136.418C17.4586 133.2 20.067 130.591 23.2852 130.591H76.4887C79.7069 130.591 82.3153 133.2 82.3153 136.418V139.534Z" fill="#407BFF"/>
<path d="M40.5874 108.451H76.2958C78.1324 108.451 79.4911 110.16 79.0772 111.949L72.6932 139.535H71.2189L76.6581 115.359C77.0594 113.574 75.7022 111.877 73.8729 111.877H41.3165L40.5874 108.451Z" fill="#263238"/>
<path d="M54.1015 140.5V163.808C54.1015 164.559 53.4903 165.163 52.7465 165.163H47.0319C46.2807 165.163 45.6769 164.559 45.6769 163.808V140.5H54.1015Z" fill="#263238"/>
<path d="M22.5576 194.318C22.5576 192.951 21.4486 191.842 20.081 191.842C18.7135 191.842 17.6044 192.95 17.6044 194.318C17.6044 195.686 18.7135 196.795 20.081 196.795C21.4486 196.794 22.5576 195.686 22.5576 194.318Z" fill="#263238"/>
<path opacity="0.2" d="M21.3189 194.318C21.3189 193.634 20.7644 193.08 20.081 193.08C19.3976 193.08 18.8431 193.635 18.8431 194.318C18.8431 195.002 19.3976 195.556 20.081 195.556C20.7651 195.556 21.3189 195.002 21.3189 194.318Z" fill="white"/>
<path d="M82.1687 194.318C82.1687 192.951 81.0597 191.842 79.6922 191.842C78.3246 191.842 77.2156 192.95 77.2156 194.318C77.2156 195.686 78.3239 196.795 79.6922 196.795C81.0604 196.795 82.1687 195.686 82.1687 194.318Z" fill="#263238"/>
<path opacity="0.2" d="M80.9309 194.318C80.9309 193.634 80.3763 193.08 79.6929 193.08C79.0088 193.08 78.455 193.635 78.455 194.318C78.455 195.002 79.0095 195.556 79.6929 195.556C80.3763 195.556 80.9309 195.002 80.9309 194.318Z" fill="white"/>
<path d="M51.9357 183.452V156.811H47.8382V183.452C31.8836 183.861 22.1894 189.439 20.2489 190.661C20.0228 190.804 19.8873 191.054 19.8873 191.321V193.535C19.8873 193.967 20.2379 194.317 20.6701 194.317C20.9515 194.317 21.2114 194.166 21.3506 193.922L22.2969 192.262C22.2969 192.262 33.2711 188.349 47.8375 188.033V192.412C47.8375 192.971 48.2911 193.425 48.8508 193.425H50.9216C51.4813 193.425 51.9349 192.971 51.9349 192.412V188.033C66.5014 188.349 77.4755 192.262 77.4755 192.262L78.4218 193.922C78.561 194.166 78.821 194.317 79.1023 194.317C79.5346 194.317 79.8858 193.967 79.8858 193.535V191.321C79.8858 191.054 79.7511 190.804 79.5242 190.661C77.5845 189.439 67.8903 183.861 51.9357 183.452Z" fill="#263238"/>
<path d="M51.231 191.842H48.543V196.794H51.231V191.842Z" fill="#263238"/>
<path opacity="0.2" d="M54.1015 140.5H45.6769V150.184H54.1015V140.5Z" fill="black"/>
<path d="M84.0886 138.099V140.883C84.0886 141.671 83.4479 142.304 82.66 142.304H17.1111C16.3231 142.304 15.6898 141.671 15.6898 140.883V138.099C15.6898 137.318 16.3231 136.678 17.1111 136.678H82.66C83.4479 136.678 84.0886 137.318 84.0886 138.099Z" fill="#263238"/>
<path d="M53.9322 139.535H15.6898C15.6898 139.535 3.53882 119.328 3.53882 85.9382V73.6768C3.53882 68.6397 7.62596 64.5526 12.6704 64.5526H28.8865C33.8279 64.5526 37.8708 68.4777 38.0107 73.4191C38.482 90.6219 41.0153 127.877 53.9322 139.535Z" fill="#263238"/>
<path opacity="0.2" d="M45.5192 139.535H17.4181C16.3319 139.535 15.3348 138.936 14.8347 137.972C12.0687 132.637 3.53802 113.915 3.53802 85.9382V73.6768C3.53802 68.6375 7.62296 64.5526 12.6623 64.5526H26.6764C31.6178 64.5526 35.6607 68.4777 35.8007 73.4191C36.2219 88.7882 38.2883 120.163 47.9354 134.99C49.2094 136.947 47.8552 139.535 45.5192 139.535Z" fill="white"/>
<path opacity="0.2" d="M84.0886 138.099V140.883C84.0886 141.668 83.4523 142.304 82.6673 142.304H53.2914C52.2303 142.304 51.3694 141.444 51.3694 140.382V138.599C51.3694 137.538 52.2295 136.677 53.2914 136.677H82.66C83.4479 136.678 84.0886 137.318 84.0886 138.099Z" fill="black"/>
<path d="M15.6787 63.4693L18.1067 60.2857C18.1067 60.2857 28.4888 60.7578 28.7355 64.5518C28.9829 68.3466 15.6787 63.4693 15.6787 63.4693Z" fill="#407BFF"/>
<path d="M8.85871 72.989C8.85871 72.989 9.49204 89.8487 8.85871 133.38C8.83736 134.848 3.36353 134.799 2.98575 133.38C1.66608 128.428 2.98575 88.8486 2.98575 88.8486" fill="#407BFF"/>
<path d="M3.09326 133.599L8.68344 133.789V136.58L3.09326 136.293V133.599Z" fill="#407BFF"/>
<path opacity="0.2" d="M8.85871 72.989C8.85871 72.989 9.49204 89.8487 8.85871 133.38C8.83736 134.848 3.36353 134.799 2.98575 133.38C1.66608 128.428 2.98575 88.8486 2.98575 88.8486" fill="white"/>
<path d="M0.332408 124.476C0.0319477 116.453 -1.06827 79.5616 3.53805 67.334C3.53805 67.334 7.87779 61.8241 22.5569 61.8241C37.236 61.8241 41.6523 72.2423 41.6523 72.2423C41.6523 72.2423 42.2856 89.1019 41.6523 132.633C41.6309 134.101 36.1571 134.052 35.7793 132.633C34.4597 127.681 35.7793 88.1018 35.7793 88.1018L32.841 124.108C32.799 124.619 32.3329 124.988 31.8262 124.91C27.1963 124.197 6.76947 121.309 1.39065 124.992C0.950266 125.296 0.352291 125.011 0.332408 124.476Z" fill="#407BFF"/>
<path d="M35.8883 132.852L41.4778 133.043V135.834L35.8883 135.547V132.852Z" fill="#407BFF"/>
<path d="M32.0994 124.952L31.6576 127.892C31.6576 127.892 8.88078 122.923 1.50036 128.215L1.06366 124.953C1.06366 124.953 6.76209 119.699 32.0994 124.952Z" fill="#407BFF"/>
<path opacity="0.4" d="M0.332408 124.476C0.0319477 116.453 -1.06827 79.5616 3.53805 67.334C3.53805 67.334 7.87779 61.8241 22.5569 61.8241C37.236 61.8241 41.6523 72.2423 41.6523 72.2423C41.6523 72.2423 42.2856 89.1019 41.6523 132.633C41.6309 134.101 36.1571 134.052 35.7793 132.633C34.4597 127.681 35.7793 88.1018 35.7793 88.1018L32.841 124.108C32.799 124.619 32.3329 124.988 31.8262 124.91C27.1963 124.197 6.76947 121.309 1.39065 124.992C0.950266 125.296 0.352291 125.011 0.332408 124.476Z" fill="white"/>
<path opacity="0.2" d="M35.7801 88.1026C35.7801 88.1026 36.1041 76.6711 41.653 72.243C41.653 72.243 34.7123 75.2292 35.7801 88.1026Z" fill="black"/>
<path opacity="0.2" d="M19.0773 63.1415C19.0773 63.1415 12.3766 66.792 11.3088 116.998C11.3088 116.998 8.39475 66.3855 19.0773 63.1415Z" fill="black"/>
</svg>
