<svg width="21" height="21" viewBox="0 0 21 21" fill="none" xmlns="http://www.w3.org/2000/svg">
<path fill-rule="evenodd" clip-rule="evenodd" d="M4.39562 7.79994C6.36606 4.38704 7.35128 2.68059 8.63754 2.10791C9.75947 1.6084 11.0407 1.6084 12.1626 2.10791C13.4489 2.68059 14.4341 4.38704 16.4045 7.79994C18.375 11.2128 19.3602 12.9193 19.213 14.3196C19.0846 15.5409 18.444 16.6505 17.4505 17.3723C16.3114 18.1999 14.3409 18.1999 10.4001 18.1999C6.45919 18.1999 4.48875 18.1999 3.34967 17.3723C2.35611 16.6505 1.71551 15.5409 1.58714 14.3196C1.43997 12.9193 2.42519 11.2128 4.39562 7.79994ZM10.4 5.41661C10.759 5.41661 11.05 5.70762 11.05 6.06661V11.2666C11.05 11.6256 10.759 11.9166 10.4 11.9166C10.041 11.9166 9.75002 11.6256 9.75002 11.2666V6.06661C9.75002 5.70762 10.041 5.41661 10.4 5.41661ZM10.4 14.7333C10.8787 14.7333 11.2667 14.3453 11.2667 13.8666C11.2667 13.388 10.8787 12.9999 10.4 12.9999C9.92137 12.9999 9.53335 13.388 9.53335 13.8666C9.53335 14.3453 9.92137 14.7333 10.4 14.7333Z" fill="#364356"/>
</svg>
