<svg width="20" height="21" viewBox="0 0 20 21" fill="none" xmlns="http://www.w3.org/2000/svg">
<path fill-rule="evenodd" clip-rule="evenodd" d="M16.5214 9.75774C16.8597 10.267 17.0538 10.8571 17.0833 11.4662L17.0611 11.6202C17.0866 12.4538 16.8084 13.2685 16.2774 13.9152C15.5994 14.6469 14.6724 15.1039 13.675 15.1984C11.218 15.4681 8.73859 15.4681 6.28165 15.1984C5.29878 15.0975 4.38796 14.6406 3.72355 13.9152C3.18384 13.2778 2.89728 12.4669 2.91767 11.6348V11.5322C2.95832 10.9048 3.16766 10.2997 3.52393 9.77973L3.58308 9.70641C3.95359 9.28944 4.20837 8.78407 4.32241 8.23992V7.60933V6.72943C4.42725 6.46454 4.69799 6.3021 4.98323 6.33296C5.26847 6.36383 5.49753 6.58033 5.54231 6.86142V7.59466V8.3719C5.54519 8.39871 5.54519 8.42575 5.54231 8.45256C5.38837 9.20902 5.0365 9.91201 4.52203 10.491C4.3239 10.804 4.21176 11.1629 4.19672 11.5322V11.6935C4.18031 12.2129 4.35359 12.7206 4.68468 13.1233C5.14371 13.5936 5.75754 13.8849 6.41473 13.9446C8.7933 14.2012 11.1929 14.2012 13.5715 13.9446C14.2466 13.8831 14.8755 13.5778 15.3385 13.0867C15.6533 12.6935 15.8183 12.2027 15.8043 11.7008V11.5322C15.7891 11.1617 15.6797 10.801 15.4864 10.4836C14.9505 9.91125 14.5779 9.20769 14.4069 8.44523C14.4041 8.41842 14.4041 8.39138 14.4069 8.36457V7.58V6.84675C14.1925 4.63235 11.9671 3.26118 10.0301 3.26118C9.20654 3.2593 8.39655 3.46897 7.67899 3.86978C7.4803 3.98823 7.23235 3.99005 7.03192 3.87453C6.83148 3.759 6.71033 3.54444 6.71575 3.31459C6.72116 3.08473 6.85229 2.87602 7.05795 2.76991C7.94711 2.27173 8.94971 2.00674 9.97093 2C12.529 2 15.3976 3.80378 15.7229 6.7001V7.56533V8.21059C15.834 8.75576 16.0892 9.26186 16.4623 9.67708C16.4844 9.70216 16.5042 9.72915 16.5214 9.75774ZM10.2096 17.359C10.6441 17.2943 11.0345 17.0603 11.2943 16.7089H11.3017C11.5263 16.4396 11.9285 16.4019 12.2 16.6246C12.4716 16.8473 12.5096 17.2462 12.285 17.5155C11.7314 18.2335 10.8749 18.6582 9.96353 18.6667C9.05478 18.656 8.20146 18.2315 7.64942 17.5155C7.42484 17.2462 7.4629 16.8473 7.73444 16.6246C8.00597 16.4019 8.40815 16.4396 8.63273 16.7089C8.73136 16.8397 8.84838 16.9557 8.98022 17.0535C9.33261 17.3137 9.77515 17.4237 10.2096 17.359Z" fill="#364356"/>
</svg>
