<svg width="20" height="20" viewBox="0 0 20 20" fill="none" xmlns="http://www.w3.org/2000/svg">
<path fill-rule="evenodd" clip-rule="evenodd" d="M9.16667 0.208374C4.67936 0.208374 1.04167 3.84606 1.04167 8.33337C1.04167 12.8207 4.67936 16.4584 9.16667 16.4584C13.654 16.4584 17.2917 12.8207 17.2917 8.33337C17.2917 3.84606 13.654 0.208374 9.16667 0.208374ZM2.29167 8.33337C2.29167 4.53642 5.36971 1.45837 9.16667 1.45837C12.9636 1.45837 16.0417 4.53642 16.0417 8.33337C16.0417 12.1303 12.9636 15.2084 9.16667 15.2084C5.36971 15.2084 2.29167 12.1303 2.29167 8.33337Z" fill="#93A6B1"/>
<path d="M16.2753 14.5582C16.0313 14.3141 15.6355 14.3141 15.3915 14.5582C15.1474 14.8022 15.1474 15.198 15.3914 15.4421L18.7247 18.7753C18.9688 19.0194 19.3645 19.0194 19.6086 18.7754C19.8527 18.5313 19.8527 18.1355 19.6086 17.8915L16.2753 14.5582Z" fill="#93A6B1"/>
</svg>
