<svg width="21" height="21" viewBox="0 0 21 21" fill="none" xmlns="http://www.w3.org/2000/svg">
<path d="M9.31676 13C9.31676 12.4017 9.80179 11.9167 10.4001 11.9167C10.9984 11.9167 11.4834 12.4017 11.4834 13C11.4834 13.5983 10.9984 14.0834 10.4001 14.0834C9.80179 14.0834 9.31676 13.5983 9.31676 13Z" fill="#2D264B"/>
<path fill-rule="evenodd" clip-rule="evenodd" d="M10.4001 1.08337C7.64788 1.08337 5.41676 3.31449 5.41676 6.06671V7.03193C5.41676 7.08983 5.42433 7.14596 5.43854 7.19938C4.19392 7.65672 3.22381 8.6608 2.81219 9.92763C2.6001 10.5804 2.6001 11.3869 2.6001 13C2.6001 14.6132 2.6001 15.4197 2.81219 16.0724C3.24083 17.3917 4.27513 18.426 5.59436 18.8546C6.2471 19.0667 7.05365 19.0667 8.66675 19.0667H12.1334C13.7465 19.0667 14.5531 19.0667 15.2058 18.8546C16.5251 18.426 17.5594 17.3917 17.988 16.0724C18.2001 15.4197 18.2001 14.6132 18.2001 13C18.2001 11.3869 18.2001 10.5804 17.988 9.92763C17.5764 8.6608 16.6063 7.65672 15.3617 7.19938C15.3759 7.14596 15.3834 7.08983 15.3834 7.03193V6.06671C15.3834 3.31449 13.1523 1.08337 10.4001 1.08337ZM12.1334 6.93337C12.97 6.93337 13.5897 6.93337 14.0834 6.96296V6.06671C14.0834 4.03246 12.4343 2.38337 10.4001 2.38337C8.36585 2.38337 6.71676 4.03246 6.71676 6.06671V6.96296C7.21053 6.93337 7.83018 6.93337 8.66676 6.93337H12.1334ZM8.01676 13C8.01676 11.6838 9.08382 10.6167 10.4001 10.6167C11.7164 10.6167 12.7834 11.6838 12.7834 13C12.7834 14.3163 11.7164 15.3834 10.4001 15.3834C9.08382 15.3834 8.01676 14.3163 8.01676 13Z" fill="#2D264B"/>
</svg>
