<svg width="21" height="21" viewBox="0 0 21 21" fill="none" xmlns="http://www.w3.org/2000/svg">
<g clip-path="url(#clip0_2022_633)">
<path d="M7.4971 8.98569C6.74735 8.24009 6.28322 7.20757 6.28322 6.06665C6.28322 4.92573 6.74735 3.89321 7.4971 3.14761C7.06544 2.93567 6.5799 2.81665 6.06655 2.81665C4.27163 2.81665 2.81655 4.27172 2.81655 6.06665C2.81655 7.86158 4.27163 9.31665 6.06655 9.31665C6.5799 9.31665 7.06544 9.19763 7.4971 8.98569Z" fill="#2D264B"/>
<path d="M7.14989 6.06665C7.14989 4.27172 8.60496 2.81665 10.3999 2.81665C12.1948 2.81665 13.6499 4.27172 13.6499 6.06665C13.6499 7.86158 12.1948 9.31665 10.3999 9.31665C8.60496 9.31665 7.14989 7.86158 7.14989 6.06665Z" fill="#2D264B"/>
<path d="M13.3027 3.14761C14.0524 3.89321 14.5166 4.92573 14.5166 6.06665C14.5166 7.20757 14.0524 8.24009 13.3027 8.98569C13.7343 9.19763 14.2199 9.31665 14.7332 9.31665C16.5281 9.31665 17.9832 7.86158 17.9832 6.06665C17.9832 4.27172 16.5281 2.81665 14.7332 2.81665C14.2199 2.81665 13.7343 2.93567 13.3027 3.14761Z" fill="#2D264B"/>
<path d="M4.54989 13.8666C4.54989 12.0717 6.00496 10.6167 7.79989 10.6167H12.9999C14.7948 10.6167 16.2499 12.0717 16.2499 13.8666C16.2499 15.6616 14.7948 17.1166 12.9999 17.1166H7.79989C6.00496 17.1166 4.54989 15.6616 4.54989 13.8666Z" fill="#2D264B"/>
<path d="M0.216553 13C0.216553 11.2051 1.67163 9.74998 3.46655 9.74998H7.79989C5.52631 9.74998 3.68322 11.5931 3.68322 13.8666C3.68322 14.7549 3.96452 15.5774 4.4429 16.25H3.46655C1.67163 16.25 0.216553 14.7949 0.216553 13Z" fill="#2D264B"/>
<path d="M17.1166 13.8666C17.1166 14.7549 16.8352 15.5774 16.3569 16.25H17.3332C19.1281 16.25 20.5832 14.7949 20.5832 13C20.5832 11.2051 19.1281 9.74998 17.3332 9.74998H12.9999C15.2735 9.74998 17.1166 11.5931 17.1166 13.8666Z" fill="#2D264B"/>
</g>
<defs>
<clipPath id="clip0_2022_633">
<rect width="20.8" height="20.8" fill="white"/>
</clipPath>
</defs>
</svg>
