<svg width="21" height="21" viewBox="0 0 21 21" fill="none" xmlns="http://www.w3.org/2000/svg">
<path d="M4.54995 4.98337C4.54995 2.70979 6.39305 0.866699 8.66662 0.866699C10.9402 0.866699 12.7833 2.70979 12.7833 4.98337C12.7833 7.25694 10.9402 9.10003 8.66662 9.10003C6.39305 9.10003 4.54995 7.25694 4.54995 4.98337Z" fill="#2D264B"/>
<path d="M1.94995 14.5167C1.94995 12.2431 3.79305 10.4 6.06662 10.4H11.2666C13.0322 10.4 14.5382 11.5115 15.123 13.0729L14.8553 13.3719C14.2534 14.0442 13.9154 14.4158 13.65 14.6421C13.3845 14.4158 13.0465 14.0442 12.4446 13.3719L11.6913 12.5306C11.0528 11.8173 9.95698 11.7568 9.24377 12.3954C8.53055 13.0339 8.47002 14.1297 9.10856 14.8429L9.92907 15.7594C10.4489 16.3403 10.9545 16.9052 11.4348 17.3089C11.8851 17.6874 12.4557 18.0498 13.1784 18.1635C12.6071 18.4636 11.9567 18.6334 11.2666 18.6334H6.06662C3.79305 18.6334 1.94995 16.7903 1.94995 14.5167Z" fill="#2D264B"/>
<path d="M19.5509 11.7003C19.7903 11.4328 19.7676 11.0219 19.5002 10.7824C19.2327 10.543 18.8218 10.5657 18.5823 10.8331L15.6624 14.0946C15.0707 14.7554 14.6723 15.1981 14.3316 15.4845C14.0071 15.7572 13.8165 15.8167 13.65 15.8167C13.4834 15.8167 13.2928 15.7572 12.9683 15.4845C12.6276 15.1981 12.2292 14.7554 11.6375 14.0945L10.8842 13.2532C10.6448 12.9857 10.2338 12.963 9.96638 13.2025C9.69893 13.4419 9.67623 13.8529 9.91568 14.1203L10.7011 14.9976C11.2522 15.6132 11.7119 16.1266 12.1319 16.4796C12.5761 16.8531 13.0554 17.1167 13.65 17.1167C14.2445 17.1167 14.7238 16.8531 15.168 16.4796C15.588 16.1266 16.0477 15.6132 16.5988 14.9976L19.5509 11.7003Z" fill="#2D264B"/>
</svg>
